<svg width="65" height="65" viewBox="0 0 65 65" fill="none" xmlns="http://www.w3.org/2000/svg">
<g clip-path="url(#clip0_23_8)">
<path d="M65 0H0V65H65V0Z" fill="#E5E5E5"/>
<path d="M65 0H0V65H65V0Z" fill="black"/>
<mask id="mask0_23_8" style="mask-type:alpha" maskUnits="userSpaceOnUse" x="21" y="13" width="24" height="40">
<mask id="mask1_23_8" style="mask-type:alpha" maskUnits="userSpaceOnUse" x="21" y="13" width="24" height="40">
<path fill-rule="evenodd" clip-rule="evenodd" d="M44.0241 17.717V22.4423L40.8881 24.2265C39.1633 25.2078 37.7521 26.1486 37.7521 26.3172C37.7521 26.4857 39.1692 27.4298 40.9015 28.4154L44.0509 30.2075L43.933 34.8626L43.8151 39.5176L32.7508 45.877C26.6657 49.3747 21.5381 52.1449 21.3567 52.0328C21.1752 51.9203 21.0268 49.8594 21.0268 47.4526V43.0768L22.8038 42.0198C23.7814 41.4386 25.3181 40.5258 26.2191 39.9914L27.857 39.0192L24.4287 37.0419L21 35.0641L21.1179 30.4646L21.2358 25.8652L32.3164 19.4368C38.4107 15.9014 43.5383 13.0046 43.7105 13C43.8828 12.9954 44.0241 15.1179 44.0241 17.717ZM39.7362 16.4024C38.6427 17.0965 37.8449 17.8211 37.9633 18.0122C38.2305 18.4445 41.905 20.5181 42.4043 20.5181C42.6054 20.5181 42.7697 19.295 42.7697 17.8002C42.7697 14.6466 42.615 14.5751 39.7362 16.4024ZM32.8382 20.3797C31.4002 21.1883 30.3185 22.0024 30.4339 22.1893C30.7471 22.6961 35.2985 25.202 35.5138 24.9862C35.6163 24.8838 35.6443 23.4747 35.5762 21.8548L35.4524 18.9095L32.8382 20.3797ZM36.9159 21.964C36.9159 23.6984 36.9999 25.1175 37.1023 25.1175C37.2052 25.1175 38.4441 24.4406 39.8553 23.6135C42.7242 21.9322 42.7885 22.1797 38.902 19.9498L36.9159 18.8104V21.964ZM25.2926 24.6927C23.3223 25.8472 22.7959 26.3406 23.2019 26.65C24.2694 27.4645 27.6651 29.2989 28.1049 29.2989C28.6155 29.2989 28.7438 23.5993 28.2396 23.3221C28.0673 23.2271 26.741 23.8439 25.2926 24.6927ZM29.3894 26.1386C29.3894 27.8768 29.5065 29.2989 29.6499 29.2989C30.2646 29.2989 34.8193 26.5634 34.7169 26.2557C34.6546 26.0696 33.4307 25.2559 31.9965 24.4477L29.3894 22.9784V26.1386ZM21.863 30.5533C21.863 32.4478 22.0294 33.4802 22.3347 33.4802C23.0363 33.4802 27.2988 30.9668 27.2988 30.5533C27.2988 30.1397 23.0363 27.6263 22.3347 27.6263C22.0294 27.6263 21.863 28.6587 21.863 30.5533ZM32.4284 29.0221C31.225 29.7492 30.237 30.455 30.2332 30.5905C30.2291 30.7264 30.6493 31.0442 31.1665 31.2967C31.6837 31.5497 32.9068 32.2492 33.8844 32.8513L35.6615 33.9456V30.7862C35.6615 28.5174 35.5139 27.6368 35.1388 27.6631C34.8515 27.6836 33.6314 28.2949 32.4284 29.0221ZM36.9159 30.5533C36.9159 32.1631 37.0233 33.4802 37.1546 33.4802C37.5523 33.4802 42.3416 30.7778 42.3416 30.5533C42.3416 30.3287 37.5523 27.6263 37.1546 27.6263C37.0233 27.6263 36.9159 28.9435 36.9159 30.5533ZM25.4172 33.075C24.2673 33.7491 23.3265 34.5088 23.3265 34.7635C23.3265 35.3229 27.9582 38.1173 28.3073 37.7682C28.4424 37.6327 28.5532 36.2366 28.5532 34.6648C28.5532 31.3569 28.4436 31.3013 25.4172 33.075ZM29.3894 34.9817V38.1558L31.989 36.6961C33.4186 35.8928 34.6429 35.0729 34.7089 34.8739C34.8168 34.5502 30.2922 31.8077 29.6499 31.8077C29.5065 31.8077 29.3894 33.236 29.3894 34.9817ZM39.9473 33.1846C38.7398 33.9013 37.7521 34.628 37.7521 34.7998C37.7521 35.0812 42.5506 38.0797 43.0014 38.0797C43.1038 38.0797 43.1879 36.6685 43.1879 34.9437C43.1879 32.6937 43.0403 31.8181 42.6652 31.8449C42.3779 31.8654 41.1549 32.4683 39.9473 33.1846ZM32.6363 37.3643C31.317 38.1027 30.2884 38.8666 30.3503 39.0619C30.4118 39.2572 31.6323 40.0742 33.0619 40.8774L35.6615 42.3371V39.1631C35.6615 37.4174 35.5201 35.9965 35.3479 36.0053C35.1756 36.0145 33.955 36.6258 32.6363 37.3643ZM36.9159 38.916C36.9159 40.6178 37.0936 41.8429 37.3403 41.8429C37.7843 41.8429 42.3516 39.3571 42.3516 39.1154C42.3516 38.9226 37.4937 35.989 37.1747 35.989C37.0325 35.989 36.9159 37.3061 36.9159 38.916ZM25.3126 41.6643C23.8755 42.4793 22.6993 43.2198 22.6993 43.3101C22.6993 43.5175 27.9101 46.4424 28.2797 46.4424C28.4302 46.4424 28.5532 45.0312 28.5532 43.3064C28.5532 41.5816 28.4118 40.1733 28.2396 40.1766C28.0673 40.1804 26.7502 40.8498 25.3126 41.6643ZM29.3894 43.3064C29.3894 45.0312 29.5308 46.4348 29.703 46.4261C30.3679 46.3918 34.5158 43.7028 34.5158 43.3064C34.5158 42.91 30.3679 40.2209 29.703 40.1867C29.5308 40.1779 29.3894 41.5816 29.3894 43.3064ZM22.1411 44.631C21.7062 45.0659 21.8154 50.6237 22.2586 50.6237C22.4764 50.6237 23.8094 49.9467 25.2206 49.1197C28.0882 47.4392 28.143 47.6658 24.3363 45.4627C23.2818 44.8526 22.2941 44.4784 22.1411 44.631Z" fill="white"/>
</mask>
<g mask="url(#mask1_23_8)">
<path fill-rule="evenodd" clip-rule="evenodd" d="M44.0241 17.717V22.4423L40.8881 24.2265C39.1633 25.2078 37.7521 26.1486 37.7521 26.3172C37.7521 26.4857 39.1692 27.4298 40.9015 28.4154L44.0509 30.2075L43.933 34.8626L43.8151 39.5176L32.7508 45.877C26.6657 49.3747 21.5381 52.1449 21.3567 52.0328C21.1752 51.9203 21.0268 49.8594 21.0268 47.4526V43.0768L22.8038 42.0198C23.7814 41.4386 25.3181 40.5258 26.2191 39.9914L27.857 39.0192L24.4287 37.0419L21 35.0641L21.1179 30.4646L21.2358 25.8652L32.3164 19.4368C38.4107 15.9014 43.5383 13.0046 43.7105 13C43.8828 12.9954 44.0241 15.1179 44.0241 17.717ZM39.7362 16.4024C38.6427 17.0965 37.8449 17.8211 37.9633 18.0122C38.2305 18.4445 41.905 20.5181 42.4043 20.5181C42.6054 20.5181 42.7697 19.295 42.7697 17.8002C42.7697 14.6466 42.615 14.5751 39.7362 16.4024ZM32.8382 20.3797C31.4002 21.1883 30.3185 22.0024 30.4339 22.1893C30.7471 22.6961 35.2985 25.202 35.5138 24.9862C35.6163 24.8838 35.6443 23.4747 35.5762 21.8548L35.4524 18.9095L32.8382 20.3797ZM36.9159 21.964C36.9159 23.6984 36.9999 25.1175 37.1023 25.1175C37.2052 25.1175 38.4441 24.4406 39.8553 23.6135C42.7242 21.9322 42.7885 22.1797 38.902 19.9498L36.9159 18.8104V21.964ZM25.2926 24.6927C23.3223 25.8472 22.7959 26.3406 23.2019 26.65C24.2694 27.4645 27.6651 29.2989 28.1049 29.2989C28.6155 29.2989 28.7438 23.5993 28.2396 23.3221C28.0673 23.2271 26.741 23.8439 25.2926 24.6927ZM29.3894 26.1386C29.3894 27.8768 29.5065 29.2989 29.6499 29.2989C30.2646 29.2989 34.8193 26.5634 34.7169 26.2557C34.6546 26.0696 33.4307 25.2559 31.9965 24.4477L29.3894 22.9784V26.1386ZM21.863 30.5533C21.863 32.4478 22.0294 33.4802 22.3347 33.4802C23.0363 33.4802 27.2988 30.9668 27.2988 30.5533C27.2988 30.1397 23.0363 27.6263 22.3347 27.6263C22.0294 27.6263 21.863 28.6587 21.863 30.5533ZM32.4284 29.0221C31.225 29.7492 30.237 30.455 30.2332 30.5905C30.2291 30.7264 30.6493 31.0442 31.1665 31.2967C31.6837 31.5497 32.9068 32.2492 33.8844 32.8513L35.6615 33.9456V30.7862C35.6615 28.5174 35.5139 27.6368 35.1388 27.6631C34.8515 27.6836 33.6314 28.2949 32.4284 29.0221ZM36.9159 30.5533C36.9159 32.1631 37.0233 33.4802 37.1546 33.4802C37.5523 33.4802 42.3416 30.7778 42.3416 30.5533C42.3416 30.3287 37.5523 27.6263 37.1546 27.6263C37.0233 27.6263 36.9159 28.9435 36.9159 30.5533ZM25.4172 33.075C24.2673 33.7491 23.3265 34.5088 23.3265 34.7635C23.3265 35.3229 27.9582 38.1173 28.3073 37.7682C28.4424 37.6327 28.5532 36.2366 28.5532 34.6648C28.5532 31.3569 28.4436 31.3013 25.4172 33.075ZM29.3894 34.9817V38.1558L31.989 36.6961C33.4186 35.8928 34.6429 35.0729 34.7089 34.8739C34.8168 34.5502 30.2922 31.8077 29.6499 31.8077C29.5065 31.8077 29.3894 33.236 29.3894 34.9817ZM39.9473 33.1846C38.7398 33.9013 37.7521 34.628 37.7521 34.7998C37.7521 35.0812 42.5506 38.0797 43.0014 38.0797C43.1038 38.0797 43.1879 36.6685 43.1879 34.9437C43.1879 32.6937 43.0403 31.8181 42.6652 31.8449C42.3779 31.8654 41.1549 32.4683 39.9473 33.1846ZM32.6363 37.3643C31.317 38.1027 30.2884 38.8666 30.3503 39.0619C30.4118 39.2572 31.6323 40.0742 33.0619 40.8774L35.6615 42.3371V39.1631C35.6615 37.4174 35.5201 35.9965 35.3479 36.0053C35.1756 36.0145 33.955 36.6258 32.6363 37.3643ZM36.9159 38.916C36.9159 40.6178 37.0936 41.8429 37.3403 41.8429C37.7843 41.8429 42.3516 39.3571 42.3516 39.1154C42.3516 38.9226 37.4937 35.989 37.1747 35.989C37.0325 35.989 36.9159 37.3061 36.9159 38.916ZM25.3126 41.6643C23.8755 42.4793 22.6993 43.2198 22.6993 43.3101C22.6993 43.5175 27.9101 46.4424 28.2797 46.4424C28.4302 46.4424 28.5532 45.0312 28.5532 43.3064C28.5532 41.5816 28.4118 40.1733 28.2396 40.1766C28.0673 40.1804 26.7502 40.8498 25.3126 41.6643ZM29.3894 43.3064C29.3894 45.0312 29.5308 46.4348 29.703 46.4261C30.3679 46.3918 34.5158 43.7028 34.5158 43.3064C34.5158 42.91 30.3679 40.2209 29.703 40.1867C29.5308 40.1779 29.3894 41.5816 29.3894 43.3064ZM22.1411 44.631C21.7062 45.0659 21.8154 50.6237 22.2586 50.6237C22.4764 50.6237 23.8094 49.9467 25.2206 49.1197C28.0882 47.4392 28.143 47.6658 24.3363 45.4627C23.2818 44.8526 22.2941 44.4784 22.1411 44.631Z" fill="black" stroke="black" stroke-width="2"/>
</g>
</mask>
<g mask="url(#mask0_23_8)">
<path d="M60.0424 4.95763H4.95764V60.0424H60.0424V4.95763Z" fill="url(#paint0_linear_23_8)"/>
</g>
</g>
<defs>
<linearGradient id="paint0_linear_23_8" x1="4.95764" y1="32.5" x2="60.0424" y2="32.5" gradientUnits="userSpaceOnUse">
<stop stop-color="#EC008C"/>
<stop offset="1" stop-color="#FC6767"/>
</linearGradient>
<clipPath id="clip0_23_8">
<rect width="65" height="65" fill="white"/>
</clipPath>
</defs>
</svg>